<svg id="Layer_1" data-name="Layer 1" xmlns="http://www.w3.org/2000/svg" viewBox="0 0 711.31 45.31"><defs><style>.cls-1{fill:#0732a2;}</style></defs><title>powered-by-foursquare</title><g id="Layer_2" data-name="Layer 2"><g id="Layer_1-2" data-name="Layer 1-2"><path class="cls-1" d="M2.24,39.34h0A2.24,2.24,0,0,1,0,37.1H0V.66H11.49c8.34,0,13,5.25,13,11.77s-4.64,11.93-13,11.93h-7V37.1A2.25,2.25,0,0,1,2.24,39.34ZM4.48,4.48V20.55h6.9c5,0,8.62-3,8.62-8.12s-3.65-7.95-8.62-7.95Z"/><path class="cls-1" d="M48.18,0A19.6,19.6,0,0,1,68.12,19.25q0,.37,0,.75A19.6,19.6,0,0,1,48.93,40h-.75a19.62,19.62,0,0,1-20-19.23q0-.38,0-.77A19.62,19.62,0,0,1,47.41,0Zm0,3.87c-9.12,0-15.47,7-15.47,16.13s6.35,16.13,15.47,16.13,15.41-7,15.41-16.13S57.29,3.87,48.18,3.87Z"/><path class="cls-1" d="M96,.66A3.56,3.56,0,0,1,99.39,3.3L108,34.75h0l7.68-32.42a2.16,2.16,0,0,1,2.1-1.67h0a2.16,2.16,0,0,1,2.1,2.69l-8.2,33.16a3.72,3.72,0,0,1-3.61,2.83h0a3.71,3.71,0,0,1-3.58-2.74L95.91,5.36,87.48,36.61a3.69,3.69,0,0,1-3.56,2.73h0a3.68,3.68,0,0,1-3.57-2.79L72,3.51A2.29,2.29,0,0,1,74.26.66h0a2.29,2.29,0,0,1,2.23,1.77L84,34.75h0L92.49,3.31A3.59,3.59,0,0,1,96,.66Z"/><path class="cls-1" d="M151.55,4.53H131.49v13.2h12.27a1.88,1.88,0,0,1,1.88,1.88h0a1.88,1.88,0,0,1-1.88,1.88H131.49v14h20.09a1.91,1.91,0,0,1,1.9,1.91h0a1.91,1.91,0,0,1-1.9,1.91H127V.66h24.53a1.93,1.93,0,0,1,1.93,1.93h0A1.93,1.93,0,0,1,151.55,4.53Z"/><path class="cls-1" d="M171.66,22.43h-7.13V37.1a2.24,2.24,0,0,1-2.23,2.24h0a2.24,2.24,0,0,1-2.24-2.24h0V.66h11.88c8.17,0,12.93,4.2,12.93,10.72,0,3.76-1.94,8.9-8.9,10.5l8.82,14.21A2.13,2.13,0,0,1,183,39.34h0a2.15,2.15,0,0,1-1.83-1Zm.06-18h-7.19V18.62h7.19c5.13,0,8.67-2.49,8.67-7.07C180.39,6.74,176.85,4.48,171.72,4.48Z"/><path class="cls-1" d="M217.19,4.53H197.13v13.2H209.4a1.89,1.89,0,0,1,1.88,1.88h0a1.88,1.88,0,0,1-1.88,1.88H197.13v14h20.08a1.91,1.91,0,0,1,1.91,1.91h0a1.91,1.91,0,0,1-1.91,1.91H192.66V.66h24.53a1.94,1.94,0,0,1,1.93,1.94h0A1.94,1.94,0,0,1,217.19,4.53Z"/><path class="cls-1" d="M236.69,39.34h-11V.66h11C249.4.66,256.52,8.51,256.52,20S249.4,39.34,236.69,39.34Zm-.77-35h-5.75v31.3h5.75c10.05,0,16.13-5.2,16.13-15.64S246,4.36,235.92,4.36Z"/><path class="cls-1" d="M290.28,18.67v.11a10.19,10.19,0,0,1,8,10c0,6-4.59,10.61-12.49,10.61H274.7V.66h10C292.27.66,296,5.41,296,10.17A8.71,8.71,0,0,1,290.28,18.67ZM279.18,4.42V17.13h4.75c4.75,0,7.68-2.1,7.68-6.41,0-4.7-3.59-6.3-7.3-6.3Zm0,31.22h5.41c5.91,0,9.17-2.66,9.17-7.35,0-5.09-4.14-7.41-9.11-7.41h-5.47Z"/><path class="cls-1" d="M302.66.66h0a2.19,2.19,0,0,1,1.81,1l11.34,16.72h0L327.29,1.57A2.07,2.07,0,0,1,329,.66h0a2.08,2.08,0,0,1,1.7,3.27L318.07,22V37.1a2.24,2.24,0,0,1-2.24,2.24h0a2.23,2.23,0,0,1-2.23-2.23h0V22.21L300.87,4.1A2.19,2.19,0,0,1,302.66.66Z"/><path class="cls-1" d="M453.44.6h-8.73a1.35,1.35,0,0,0-1.23,1.23V23.89c0,3.61-1.29,5.53-4.61,5.53s-4.61-1.78-4.61-5.39V1.8A1.4,1.4,0,0,0,433,.6h-8.7a1,1,0,0,0-1.09,1.06V26.08c0,7.55,5.46,13.62,15.55,13.62s15.77-6.07,15.77-13.62V1.66A1.09,1.09,0,0,0,453.44.6"/><path class="cls-1" d="M516.28,16.17,510,14c-1.85-.65-2.07-1.69-2.07-2.3,0-1,.92-2,2.78-2a12.69,12.69,0,0,1,7.75,2.75.89.89,0,0,0,1.25-.11l0,0,4.87-6.17a1,1,0,0,0-.11-1.33A21.21,21.21,0,0,0,510.55.08c-9,0-14.45,5.64-14.45,11.77,0,4.81,2.78,9.25,8.73,11.27L510.39,25c2.73.93,3.17,1.64,3.17,2.79S512.47,30,510.28,30c-3.08,0-6.7-1.86-9.13-3.88a.84.84,0,0,0-1.19.06l-.05.06-5,6.59A1,1,0,0,0,495,34.2a23.67,23.67,0,0,0,15.74,5.47c8.52,0,14.68-4.93,14.68-12.37,0-5.09-3.16-9.09-9.17-11.17"/><path class="cls-1" d="M376.31.6H350.63a1.37,1.37,0,0,0-1.22,1.23V38.22a1.15,1.15,0,0,0,1.08,1.12h9a1.11,1.11,0,0,0,1-1.12V25.88h11.25a1.19,1.19,0,0,0,1.18-1L374.51,17a.78.78,0,0,0-.79-1H360.47V10.41h14.4a1.27,1.27,0,0,0,1.19-1l1.51-7.55A1.18,1.18,0,0,0,376.48.6h-.17"/><path class="cls-1" d="M708.51,10.46a1.25,1.25,0,0,0,1.18-1L711.28,2a1,1,0,0,0-.94-1.29L684.53.6c-.62,0-1.23,1.3-1.23,1.85V38.22a1.44,1.44,0,0,0,1.26,1.23h23.59a1.25,1.25,0,0,0,1.18-1l1.59-7.55a1.06,1.06,0,0,0-1.18-1.29H694.36v-5H705.6a1.26,1.26,0,0,0,1.18-1l1.68-7.79a.76.76,0,0,0-.79-1H694.36V10.46Z"/><path class="cls-1" d="M631.11,1.48a1.48,1.48,0,0,0-1.3-.88H618.1a1.43,1.43,0,0,0-1.26.88l-11,37a.67.67,0,0,0,.64.93h9.8a1.34,1.34,0,0,0,1.16-.94l1.56-5.8h9.84l1.69,5.85a1.35,1.35,0,0,0,1.17.93h9.74a.68.68,0,0,0,.65-.93Zm-10.72,20.7,3.53-11.55,3.55,11.55Z"/><path class="cls-1" d="M671.25,24.66c4.63-2.3,7-5.9,7-11.26,0-6.78-5.44-12.8-14.65-12.8H647a1.32,1.32,0,0,0-1.23,1.11V38.22a1.36,1.36,0,0,0,1.14,1.23h8.73a1.41,1.41,0,0,0,1.2-1.23V26.5h3.68l6.54,12.08a1.8,1.8,0,0,0,1.45.87h10.28c.55,0,.77-.38.5-.85Zm-8.61-7.41h-5.78V10.47h5.53c3.16,0,4.66,1.53,4.66,3.45S665.8,17.25,662.64,17.25Z"/><path class="cls-1" d="M568,34.22a10.75,10.75,0,0,1-6.16.46h0c.38-.34.76-.69,1.12-1.06a20.44,20.44,0,0,0,4.09-20.69A20,20,0,0,0,549.83.14c-7.76-.63-15.62,3.19-19.37,10a20.39,20.39,0,0,0,2.15,22.7,20.79,20.79,0,0,0,18.63,6.67l.3.29c3.76,3.55,9.86,5.53,15.07,5.53l2.15-10.49a.52.52,0,0,0-.71-.6M548.14,29.6c-5,0-8.38-4.35-8.38-9.71s3.39-9.71,8.38-9.71,8.38,4.34,8.38,9.71-3.39,9.71-8.38,9.71"/><path class="cls-1" d="M400.46.14c-7.76-.63-15.62,3.19-19.37,10a20.39,20.39,0,0,0,2.15,22.7c7.6,8.86,22.33,9.22,30.39.8a20.44,20.44,0,0,0,4.09-20.69A20,20,0,0,0,400.46.14M398.77,29.6c-5,0-8.38-4.35-8.38-9.71s3.4-9.71,8.38-9.71,8.38,4.34,8.38,9.71-3.39,9.71-8.38,9.71"/><path class="cls-1" d="M602.84.6h-8.72a1.32,1.32,0,0,0-1.21,1.23V24c0,3.61-1.32,5.39-4.64,5.39s-4.61-1.78-4.61-5.39V1.8A1.42,1.42,0,0,0,582.43.6h-8.55a1.71,1.71,0,0,0-1.27,1.23V26.08c0,7.55,5.46,13.62,15.55,13.62s15.77-6.07,15.77-13.62V1.83A1.24,1.24,0,0,0,602.84.6"/><path class="cls-1" d="M484.93,24.66c4.63-2.3,7-5.9,7-11.26C492,6.62,486.51.6,477.31.6H460.7a1.45,1.45,0,0,0-1.23,1.23V38.22a1.36,1.36,0,0,0,1.15,1.23h8.73a1.41,1.41,0,0,0,1.19-1.23V26.5h3.69l6.53,12.08a1.82,1.82,0,0,0,1.46.87H492.5c.55,0,.77-.38.49-.85Zm-8.6-7.41h-5.79V10.47h5.53c3.16,0,4.66,1.53,4.66,3.45S479.48,17.25,476.33,17.25Z"/></g></g></svg>