<?xml version="1.0" standalone="no"?>
<!DOCTYPE svg PUBLIC "-//W3C//DTD SVG 20010904//EN"
 "http://www.w3.org/TR/2001/REC-SVG-20010904/DTD/svg10.dtd">
<svg version="1.0" xmlns="http://www.w3.org/2000/svg"
 width="1000.000000pt" height="1000.000000pt" viewBox="0 0 1000.000000 1000.000000"
 preserveAspectRatio="xMidYMid meet">
<metadata>
Created by potrace 1.11, written by Peter Selinger 2001-2013
</metadata>
<g transform="translate(0.000000,1000.000000) scale(0.100000,-0.100000)"
fill="#000000" stroke="none">
<path d="M4563 9784 c-839 -83 -1575 -346 -2253 -805 -294 -200 -449 -330
-740 -626 -364 -369 -613 -712 -843 -1160 -265 -520 -416 -1008 -499 -1623
-20 -148 -23 -206 -23 -565 0 -356 3 -418 22 -560 131 -955 454 -1723 1031
-2450 121 -152 580 -611 725 -725 799 -626 1652 -966 2632 -1050 155 -13 595
-13 750 0 851 73 1627 345 2325 817 510 345 983 826 1322 1348 367 564 612
1192 718 1845 70 438 79 948 24 1385 -111 868 -465 1700 -1023 2399 -167 210
-475 520 -696 702 -426 350 -952 644 -1470 823 -376 130 -818 222 -1200 251
-188 13 -639 11 -802 -6z m870 -439 c1315 -141 2462 -835 3196 -1933 786
-1176 946 -2681 424 -4002 -356 -901 -1012 -1668 -1850 -2163 -105 -62 -246
-137 -258 -137 -3 0 -4 855 -3 1901 l3 1901 51 18 c489 172 813 810 754 1485
-34 394 -172 726 -399 954 -173 175 -368 266 -596 278 -469 23 -878 -348
-1025 -930 -38 -151 -50 -261 -50 -457 0 -303 50 -530 167 -765 88 -175 209
-326 345 -431 68 -53 184 -116 256 -139 l52 -17 0 -1998 0 -1999 -56 -21
c-107 -40 -352 -109 -510 -144 -334 -74 -583 -100 -944 -100 -472 1 -870 62
-1317 203 l-133 42 0 1968 0 1967 71 18 c93 25 267 111 352 176 239 181 390
442 426 735 7 59 11 366 11 883 l0 792 -220 0 -219 0 -3 -817 c-4 -908 -1
-862 -73 -1008 -60 -122 -162 -226 -280 -286 l-60 -30 -3 1071 -2 1070 -225 0
-225 0 0 -1070 0 -1070 -37 15 c-154 64 -289 217 -351 400 l-27 80 -3 823 -3
822 -219 0 -220 0 0 -792 c0 -517 4 -824 11 -883 36 -294 186 -553 425 -735
86 -65 260 -151 353 -176 l71 -18 0 -1874 0 -1874 -97 52 c-407 215 -749 467
-1069 785 -435 432 -762 926 -981 1481 -214 540 -307 1027 -307 1609 0 474 65
893 204 1330 259 812 783 1564 1460 2096 713 561 1541 873 2475 933 117 7 522
-4 658 -19z m1372 -2150 c217 -56 402 -303 476 -635 28 -127 27 -130 -27 -80
-67 61 -124 84 -214 84 -62 1 -85 -4 -132 -27 -111 -54 -171 -151 -172 -277 0
-121 60 -221 168 -278 44 -23 64 -27 136 -27 100 0 154 21 219 87 47 46 47 44
22 -72 -47 -211 -129 -370 -255 -496 -156 -156 -310 -189 -486 -106 -74 35
-205 166 -258 258 -195 336 -216 813 -52 1178 91 204 260 365 413 396 65 12
98 11 162 -5z"/>
<path d="M4275 3281 c-105 -26 -175 -113 -175 -216 0 -59 22 -111 68 -158 66
-68 53 -67 824 -67 490 0 702 3 735 12 32 8 61 25 94 57 111 108 84 280 -54
354 l-42 22 -710 2 c-390 1 -723 -2 -740 -6z"/>
</g>
</svg>
